<svg width="143" height="125" viewBox="0 0 143 125" fill="none" xmlns="http://www.w3.org/2000/svg">
<path d="M5.10714 23.0234H137.893C140.714 23.0234 143 20.743 143 17.9297V5.19531C143 2.38197 140.714 0.101562 137.893 0.101562H5.10714C2.2864 0.101562 0 2.38197 0 5.19531V17.9297C0 20.743 2.2864 23.0234 5.10714 23.0234ZM5.10714 73.9609H137.893C140.714 73.9609 143 71.6805 143 68.8672V56.1328C143 53.3195 140.714 51.0391 137.893 51.0391H5.10714C2.2864 51.0391 0 53.3195 0 56.1328V68.8672C0 71.6805 2.2864 73.9609 5.10714 73.9609ZM5.10714 124.898H137.893C140.714 124.898 143 122.618 143 119.805V107.07C143 104.257 140.714 101.977 137.893 101.977H5.10714C2.2864 101.977 0 104.257 0 107.07V119.805C0 122.618 2.2864 124.898 5.10714 124.898Z" fill="#F8F8F8"/>
</svg>
