<svg width="70" height="70" viewBox="0 0 70 70" fill="none" xmlns="http://www.w3.org/2000/svg">
<path d="M35 0.125C15.7344 0.125 0.125 15.7344 0.125 35C0.125 54.2656 15.7344 69.875 35 69.875C54.2656 69.875 69.875 54.2656 69.875 35C69.875 15.7344 54.2656 0.125 35 0.125ZM32.75 46.25C32.75 47.4875 31.7375 48.5 30.5 48.5H23.75C22.5125 48.5 21.5 47.4875 21.5 46.25V23.75C21.5 22.5125 22.5125 21.5 23.75 21.5H30.5C31.7375 21.5 32.75 22.5125 32.75 23.75V46.25ZM48.5 46.25C48.5 47.4875 47.4875 48.5 46.25 48.5H39.5C38.2625 48.5 37.25 47.4875 37.25 46.25V23.75C37.25 22.5125 38.2625 21.5 39.5 21.5H46.25C47.4875 21.5 48.5 22.5125 48.5 23.75V46.25Z" fill="#333333"/>
</svg>
